<?xml version="1.0" encoding="utf-8"?>
<!-- Generator: Adobe Illustrator 24.0.2, SVG Export Plug-In . SVG Version: 6.00 Build 0)  -->
<svg version="1.1" xmlns="http://www.w3.org/2000/svg" xmlns:xlink="http://www.w3.org/1999/xlink" x="0px" y="0px"
	 viewBox="0 0 24 24" style="enable-background:new 0 0 24 24;" xml:space="preserve">
<style type="text/css">
	.st0{fill:none;}
	.st1{display:none;}
	.st2{display:inline;}
	.st3{fill:none;stroke:#343a40;stroke-width:0.1;stroke-miterlimit:10;}
	.st4{fill:#343a40;}
</style>
<g id="bounding_box">
	<rect x="0" y="0" class="st0" width="24" height="24"/>
</g>
<g id="design">
	<path class="st4" d="M20.79,18.95l-1.66-9.5C18.99,8.61,18.26,8,17.41,8H16V7c0-2.21-1.79-4-4-4S8,4.79,8,7v1H6.59
		C5.74,8,5.01,8.61,4.87,9.45l-1.66,9.5c-0.08,0.51,0.06,1.03,0.39,1.43C3.93,20.77,4.42,21,4.94,21h14.12
		c0.52,0,1.01-0.23,1.34-0.62C20.73,19.98,20.87,19.46,20.79,18.95z M9.5,7c0-1.38,1.12-2.5,2.5-2.5s2.5,1.12,2.5,2.5v1h-5V7z
		 M19.25,19.41c-0.03,0.03-0.09,0.09-0.19,0.09H4.94c-0.1,0-0.16-0.06-0.19-0.09c-0.03-0.03-0.08-0.1-0.06-0.2l1.65-9.5
		C6.37,9.59,6.47,9.5,6.59,9.5H8v2.75C8,12.66,8.34,13,8.75,13s0.75-0.34,0.75-0.75V9.5h5v2.75c0,0.41,0.34,0.75,0.75,0.75
		S16,12.66,16,12.25V9.5h1.41c0.12,0,0.22,0.09,0.24,0.21l1.66,9.5C19.32,19.31,19.28,19.38,19.25,19.41z"/>
</g>
</svg>
